<svg xmlns="http://www.w3.org/2000/svg" xmlns:xlink="http://www.w3.org/1999/xlink" fill="#26701d" height="800px" width="800px" version="1.1" id="Layer_1" viewBox="0 0 512 512" xml:space="preserve">
<g>
	<g>
		<path d="M490.667,42.667c11.797,0,21.333-9.557,21.333-21.333S502.464,0,490.667,0H277.333C265.557,0,256,9.557,256,21.333    s9.557,21.333,21.333,21.333h85.333v42.667h-21.333c-11.776,0-21.333,9.557-21.333,21.333v256    c-23.531,0-42.667-19.136-42.667-42.667V128c0-35.285-28.693-64-64-64c-35.285,0-64,28.715-64,64v149.333    c0,15.723-8.64,29.333-21.333,36.736v-15.403c0-11.776-9.536-21.333-21.333-21.333H21.333C9.557,277.333,0,286.891,0,298.667V384    c0,11.776,9.557,21.333,21.333,21.333h85.333c11.797,0,21.333-9.557,21.333-21.333v-24.363c36.715-9.536,64-42.667,64-82.304V128    c0-11.755,9.579-21.333,21.333-21.333c11.776,0,21.333,9.579,21.333,21.333v192c0,47.061,38.293,85.333,85.333,85.333v14.869    l-39.083,58.624c-4.352,6.549-4.757,14.955-1.045,21.909c3.712,6.933,10.944,11.264,18.795,11.264h170.667    c7.872,0,15.104-4.331,18.816-11.264c3.712-6.955,3.307-15.36-1.067-21.909L448,420.203V106.667    c0-11.776-9.536-21.333-21.333-21.333h-21.333V42.667H490.667z M415.253,448l14.229,21.333h-90.944L352.768,448H415.253z" fill="#26701d"/>
	</g>
</g>
</svg>