<!DOCTYPE svg PUBLIC "-//W3C//DTD SVG 1.1//EN" "http://www.w3.org/Graphics/SVG/1.1/DTD/svg11.dtd">
<!-- Uploaded to: SVG Repo, www.svgrepo.com, Transformed by: SVG Repo Mixer Tools -->
<svg fill="#10187e" width="800px" height="800px" viewBox="0 0 50 50" version="1.2" baseProfile="tiny" xmlns="http://www.w3.org/2000/svg" overflow="inherit" stroke="#10187e">
<g id="SVGRepo_bgCarrier" stroke-width="0"/>
<g id="SVGRepo_tracerCarrier" stroke-linecap="round" stroke-linejoin="round"/>
<g id="SVGRepo_iconCarrier">
<path d="M6 11v33.74c0 1.47 1.237 3.26 2.76 3.26h33.218c1.519 0 3.022-1.79 3.022-3.26v-33.74h-39zm19.46 26.776c-5.86 0-10.611-4.594-10.611-10.263s4.751-10.263 10.611-10.263 10.611 4.594 10.611 10.263c0 5.67-4.751 10.263-10.611 10.263zm16.518-36.776h-33.218c-1.523 0-2.76 1.033-2.76 2.505v5.495h39v-5.495c0-1.472-1.503-2.505-3.022-2.505zm-22.978 6h-11v-4h11v4zm19.146-.28c-1.249 0-2.258-.979-2.258-2.188 0-1.207 1.009-2.186 2.258-2.186s2.261.979 2.261 2.186c-.001 1.208-1.012 2.188-2.261 2.188z"/>
</g>
</svg>