<svg xmlns="http://www.w3.org/2000/svg" xmlns:xlink="http://www.w3.org/1999/xlink" fill="#e91e63" height="800px" width="800px" version="1.1" id="Icons" viewBox="0 0 32 32" xml:space="preserve">
<path d="M29,13h-2h-4.5l2.6-6.1c0.3-0.6,0.3-1.4-0.1-1.9c-0.4-0.6-1-0.9-1.7-0.9h-7.1c-1.1,0-2.2,0.6-2.7,1.7L10.3,13H5H3  c-0.6,0-1,0.4-1,1s0.4,1,1,1h1.1l1.5,9.6c0.3,2,2,3.4,4,3.4h12.9c2,0,3.7-1.4,4-3.4l1.5-9.6H29c0.6,0,1-0.4,1-1S29.6,13,29,13z   M19,21h-6c-0.6,0-1-0.4-1-1s0.4-1,1-1h6c0.6,0,1,0.4,1,1S19.6,21,19,21z M20.3,13h-7.8l2.8-6.4C15.5,6.2,15.9,6,16.2,6l7.1,0  L20.3,13z" fill="#e91e63"/>
</svg>