<svg xmlns="http://www.w3.org/2000/svg" xmlns:xlink="http://www.w3.org/1999/xlink" fill="#91635d" height="800px" width="800px" version="1.1" id="Capa_1" viewBox="0 0 410 410" xml:space="preserve">
<g>
	<path d="M205,0c-3.201,0-5.798,2.596-5.798,5.798v393.387c0,3.202,2.597,5.795,5.798,5.795s5.798-2.594,5.798-5.795V5.798   C210.798,2.596,208.201,0,205,0z" fill="#91635d"/>
	<path d="M88.835,114.885c27.939,0,50.594-22.65,50.594-50.589S116.774,13.71,88.835,13.71c-27.934,0-50.585,22.648-50.585,50.586   S60.901,114.885,88.835,114.885z" fill="#91635d"/>
	<path d="M103.981,124.373c-4.709-1.782-9.811-2.767-15.143-2.767c-5.336,0-10.438,0.986-15.147,2.768   c-13.244,4.013-63.199,25.439-70.421,121.393c-0.664,8.842,5.962,16.548,14.804,17.212c0.409,0.032,0.817,0.046,1.222,0.046   c8.316,0,15.356-6.417,15.991-14.847c1.645-21.872,5.677-38.668,10.744-51.548v49.418c0,3.37,0.401,6.641,1.137,9.785v135.441   c0,10.341,8.385,18.727,18.729,18.727c10.341,0,18.727-8.385,18.727-18.727V288.646c1.386,0.136,2.791,0.21,4.215,0.21   c1.423,0,2.828-0.074,4.214-0.21v102.628c0,10.341,8.385,18.727,18.729,18.727c10.341,0,18.726-8.385,18.726-18.727V255.828   c0.736-3.142,1.136-6.412,1.136-9.78v-49.423c5.068,12.881,9.1,29.678,10.747,51.553c0.632,8.43,7.671,14.848,15.988,14.848   c0.404,0,0.813-0.014,1.221-0.046c8.841-0.665,15.469-8.37,14.804-17.212C167.186,149.805,117.218,128.384,103.981,124.373z" fill="#91635d"/>
	<path d="M321.161,114.885c27.938,0,50.59-22.65,50.59-50.589s-22.652-50.586-50.59-50.586c-27.935,0-50.589,22.648-50.589,50.586   S293.226,114.885,321.161,114.885z" fill="#91635d"/>
	<path d="M406.73,245.768c-7.218-95.95-57.174-117.379-70.42-121.393c-4.709-1.783-9.812-2.769-15.147-2.769   c-5.332,0-10.434,0.985-15.142,2.767c-13.235,4.01-63.203,25.43-70.425,121.394c-0.665,8.842,5.962,16.548,14.804,17.212   c0.409,0.032,0.815,0.046,1.222,0.046c8.317,0,15.355-6.417,15.988-14.847c1.647-21.873,5.68-38.668,10.747-51.549v33.52   l-18.4,80.43c-0.366,1.603,0.017,3.287,1.042,4.573c1.025,1.289,2.582,2.037,4.226,2.037h14.268v74.084   c0,10.341,8.385,18.727,18.726,18.727c10.344,0,18.729-8.385,18.729-18.727v-74.084h8.43v74.084   c0,10.341,8.385,18.727,18.727,18.727c10.344,0,18.729-8.385,18.729-18.727v-74.084h14.269c0.007,0,0.013,0,0.023,0   c2.984,0,5.405-2.42,5.405-5.405c0-0.593-0.096-1.163-0.273-1.697l-18.286-79.933v-33.378c5.068,12.871,9.108,29.622,10.744,51.402   c0.635,8.431,7.674,14.848,15.991,14.848c0.404,0,0.813-0.014,1.221-0.046C400.767,262.315,407.395,254.609,406.73,245.768z" fill="#91635d"/>
</g>
</svg>