<?xml version="1.0" encoding="iso-8859-1"?>
<!-- Uploaded to: SVG Repo, www.svgrepo.com, Generator: SVG Repo Mixer Tools -->
<svg height="800px" width="800px" version="1.1" id="Layer_1" xmlns="http://www.w3.org/2000/svg" xmlns:xlink="http://www.w3.org/1999/xlink" 
	 viewBox="0 0 512 512" xml:space="preserve">
<g transform="translate(0 -1)">
	<polygon style="fill:#821E1C;" points="119.467,500.199 392.533,500.199 392.533,448.999 119.467,448.999 	"/>
	<polygon style="fill:#C03A2B;" points="102.4,448.999 409.6,448.999 409.6,39.399 102.4,39.399 	"/>
	<polygon style="fill:#821E1C;" points="102.4,39.399 409.6,39.399 409.6,5.265 102.4,5.265 	"/>
	<polygon style="fill:#28BAE8;" points="136.533,158.865 307.2,158.865 307.2,73.532 136.533,73.532 	"/>
	<polygon style="fill:#1E94AF;" points="136.533,244.199 307.2,244.199 307.2,158.865 136.533,158.865 	"/>
	<polygon style="fill:#28BAE8;" points="136.533,329.532 307.2,329.532 307.2,244.199 136.533,244.199 	"/>
	<polygon style="fill:#F3D55B;" points="341.333,116.199 375.467,116.199 375.467,82.065 341.333,82.065 	"/>
	<polygon style="fill:#4482C3;" points="341.333,184.465 375.467,184.465 375.467,150.332 341.333,150.332 	"/>
	<polygon style="fill:#26B99A;" points="341.333,252.732 375.467,252.732 375.467,218.599 341.333,218.599 	"/>
	<polygon style="fill:#FD973B;" points="341.333,320.999 375.467,320.999 375.467,286.865 341.333,286.865 	"/>
	<polygon style="fill:#821E1C;" points="136.533,414.865 375.467,414.865 375.467,363.665 136.533,363.665 	"/>
	<path style="fill:#556080;" d="M503.467,508.735H8.533c-4.719,0-8.533-3.814-8.533-8.533c0-4.719,3.814-8.533,8.533-8.533h494.933
		c4.719,0,8.533,3.814,8.533,8.533C512,504.92,508.186,508.735,503.467,508.735"/>
	<g>
		<path style="fill:#1E94AF;" d="M170.667,133.268c-4.719,0-8.533-3.814-8.533-8.533v-17.067c0-4.719,3.814-8.533,8.533-8.533
			c4.719,0,8.533,3.814,8.533,8.533v17.067C179.2,129.454,175.386,133.268,170.667,133.268"/>
		<path style="fill:#1E94AF;" d="M204.8,133.268c-4.719,0-8.533-3.814-8.533-8.533v-17.067c0-4.719,3.814-8.533,8.533-8.533
			c4.719,0,8.533,3.814,8.533,8.533v17.067C213.333,129.454,209.519,133.268,204.8,133.268"/>
		<path style="fill:#1E94AF;" d="M238.933,133.268c-4.719,0-8.533-3.814-8.533-8.533v-17.067c0-4.719,3.814-8.533,8.533-8.533
			c4.719,0,8.533,3.814,8.533,8.533v17.067C247.467,129.454,243.652,133.268,238.933,133.268"/>
		<path style="fill:#1E94AF;" d="M273.067,133.268c-4.719,0-8.533-3.814-8.533-8.533v-17.067c0-4.719,3.814-8.533,8.533-8.533
			s8.533,3.814,8.533,8.533v17.067C281.6,129.454,277.786,133.268,273.067,133.268"/>
	</g>
	<g>
		<path style="fill:#28BAE8;" d="M170.667,218.601c-4.719,0-8.533-3.814-8.533-8.533v-17.067c0-4.719,3.814-8.533,8.533-8.533
			c4.719,0,8.533,3.814,8.533,8.533v17.067C179.2,214.787,175.386,218.601,170.667,218.601"/>
		<path style="fill:#28BAE8;" d="M204.8,218.601c-4.719,0-8.533-3.814-8.533-8.533v-17.067c0-4.719,3.814-8.533,8.533-8.533
			c4.719,0,8.533,3.814,8.533,8.533v17.067C213.333,214.787,209.519,218.601,204.8,218.601"/>
		<path style="fill:#28BAE8;" d="M238.933,218.601c-4.719,0-8.533-3.814-8.533-8.533v-17.067c0-4.719,3.814-8.533,8.533-8.533
			c4.719,0,8.533,3.814,8.533,8.533v17.067C247.467,214.787,243.652,218.601,238.933,218.601"/>
		<path style="fill:#28BAE8;" d="M273.067,218.601c-4.719,0-8.533-3.814-8.533-8.533v-17.067c0-4.719,3.814-8.533,8.533-8.533
			s8.533,3.814,8.533,8.533v17.067C281.6,214.787,277.786,218.601,273.067,218.601"/>
	</g>
	<g>
		<path style="fill:#1E94AF;" d="M170.667,303.935c-4.719,0-8.533-3.814-8.533-8.533v-17.067c0-4.719,3.814-8.533,8.533-8.533
			c4.719,0,8.533,3.814,8.533,8.533v17.067C179.2,300.12,175.386,303.935,170.667,303.935"/>
		<path style="fill:#1E94AF;" d="M204.8,303.935c-4.719,0-8.533-3.814-8.533-8.533v-17.067c0-4.719,3.814-8.533,8.533-8.533
			c4.719,0,8.533,3.814,8.533,8.533v17.067C213.333,300.12,209.519,303.935,204.8,303.935"/>
		<path style="fill:#1E94AF;" d="M238.933,303.935c-4.719,0-8.533-3.814-8.533-8.533v-17.067c0-4.719,3.814-8.533,8.533-8.533
			c4.719,0,8.533,3.814,8.533,8.533v17.067C247.467,300.12,243.652,303.935,238.933,303.935"/>
		<path style="fill:#1E94AF;" d="M273.067,303.935c-4.719,0-8.533-3.814-8.533-8.533v-17.067c0-4.719,3.814-8.533,8.533-8.533
			s8.533,3.814,8.533,8.533v17.067C281.6,300.12,277.786,303.935,273.067,303.935"/>
	</g>
</g>
</svg>