<?xml version="1.0" encoding="utf-8"?><!-- Uploaded to: SVG Repo, www.svgrepo.com, Generator: SVG Repo Mixer Tools -->
<svg fill="#000000" width="800px" height="800px" viewBox="0 0 24 24" id="water-tap-2" data-name="Flat Line" xmlns="http://www.w3.org/2000/svg" class="icon flat-line"><path id="secondary" d="M3,15v3a1,1,0,0,0,1,1H6a1,1,0,0,0,1-1V16a1,1,0,0,1,1-1H21V11H16.62a1,1,0,0,1-.9-.55l-.44-.9a1,1,0,0,0-.9-.55H11.62a1,1,0,0,0-.9.55l-.44.9a1,1,0,0,1-.9.55H7A4,4,0,0,0,3,15Z" style="fill: rgb(44, 169, 188); stroke-width: 2;"></path><path id="primary" d="M10,5h6M13,8.84V5m8,12V9M3,15v3a1,1,0,0,0,1,1H6a1,1,0,0,0,1-1V16a1,1,0,0,1,1-1H21V11H16.62a1,1,0,0,1-.9-.55l-.44-.9a1,1,0,0,0-.9-.55H11.62a1,1,0,0,0-.9.55l-.44.9a1,1,0,0,1-.9.55H7A4,4,0,0,0,3,15Z" style="fill: none; stroke: rgb(0, 0, 0); stroke-linecap: round; stroke-linejoin: round; stroke-width: 2;"></path></svg>